<svg xmlns="http://www.w3.org/2000/svg" viewBox="0 8.949999809265137 200 35.54999923706055" data-asc="0.878" width="200" height="35.54999923706055"><defs/><g fill="#000000"><g transform="translate(0, 0)"><path d="M18 44.50Q12.35 44.50 8.33 42.52Q4.30 40.55 2.15 36.60Q0 32.65 0 26.70Q0 20.75 2.15 16.82Q4.30 12.90 8.33 10.92Q12.35 8.95 18 8.95Q23.65 8.95 27.68 10.92Q31.70 12.90 33.85 16.82Q36 20.75 36 26.70Q36 32.65 33.85 36.60Q31.70 40.55 27.68 42.52Q23.65 44.50 18 44.50M18 37.50Q20.15 37.50 21.80 36.85Q23.45 36.20 24.58 34.95Q25.70 33.70 26.25 31.90Q26.80 30.10 26.80 27.85L26.80 25.65Q26.80 23.35 26.25 21.55Q25.70 19.75 24.58 18.50Q23.45 17.25 21.80 16.60Q20.15 15.95 18 15.95Q15.80 15.95 14.15 16.60Q12.50 17.25 11.40 18.50Q10.30 19.75 9.75 21.55Q9.20 23.35 9.20 25.65L9.20 27.85Q9.20 30.10 9.75 31.90Q10.30 33.70 11.40 34.95Q12.50 36.20 14.15 36.85Q15.80 37.50 18 37.50ZM42 43.90L42 9.55L60.90 9.55Q64.40 9.55 66.88 10.97Q69.35 12.40 70.68 14.92Q72 17.45 72 20.85Q72 24.35 70.63 26.90Q69.25 29.45 66.72 30.88Q64.20 32.30 60.70 32.30L50.95 32.30L50.95 43.90L42 43.90M50.95 25.40L58.60 25.40Q60.70 25.40 61.80 24.22Q62.90 23.05 62.90 20.95Q62.90 19.45 62.42 18.50Q61.95 17.55 61 17.02Q60.05 16.50 58.60 16.50L50.95 16.50L50.95 25.40ZM76.90 43.90L76.90 9.55L96.85 9.55Q100.65 9.55 103.20 10.97Q105.75 12.40 107.03 14.87Q108.30 17.35 108.30 20.40Q108.30 23.70 106.78 26.27Q105.25 28.85 102.50 30.30L109.40 43.90L99.40 43.90L93.70 31.80L85.85 31.80L85.85 43.90L76.90 43.90M85.85 25.15L95.10 25.15Q96.95 25.15 98.08 23.92Q99.20 22.70 99.20 20.65Q99.20 19.30 98.70 18.35Q98.20 17.40 97.30 16.87Q96.40 16.35 95.10 16.35L85.85 16.35L85.85 25.15ZM111.05 43.90L123.95 9.55L134.70 9.55L147.60 43.90L138.05 43.90L136 37.95L122.30 37.95L120.25 43.90L111.05 43.90M124.45 31.25L133.80 31.25L131.35 24.00Q131.15 23.45 130.88 22.62Q130.60 21.80 130.33 20.87Q130.05 19.95 129.80 19.00Q129.55 18.05 129.30 17.35L128.95 17.35Q128.75 18.30 128.38 19.50Q128 20.70 127.63 21.90Q127.25 23.10 126.95 24.00L124.45 31.25ZM151.70 43.90L151.70 9.55L160.65 9.55L160.65 43.90L151.70 43.90ZM168.15 43.90L168.15 9.55L176.10 9.55L188.60 25.50Q188.95 25.90 189.53 26.65Q190.10 27.40 190.65 28.17Q191.20 28.95 191.45 29.40L191.70 29.35Q191.70 28.25 191.70 27.22Q191.70 26.20 191.70 25.50L191.70 9.55L200 9.55L200 43.90L192.10 43.90L178.85 27.10Q178.20 26.30 177.63 25.45Q177.05 24.60 176.70 24.05L176.45 24.10Q176.45 24.90 176.45 25.72Q176.45 26.55 176.45 27.10L176.45 43.90L168.15 43.90Z"/></g></g></svg>