<svg xmlns="http://www.w3.org/2000/svg" viewBox="0 12.899999618530273 201.9499969482422 36" data-asc="0.968" width="201.9499969482422" height="36"><defs/><g fill="#0064a4"><g transform="translate(0, 0)"><path d="M18.90 48.90Q14.80 48.90 11.35 47.55Q7.90 46.20 5.35 43.77Q2.80 41.35 1.40 38.07Q0 34.80 0 30.90Q0 27.00 1.40 23.72Q2.80 20.45 5.35 18.02Q7.90 15.60 11.35 14.25Q14.80 12.90 18.85 12.90Q22.95 12.90 26.38 14.25Q29.80 15.60 32.35 18.02Q34.90 20.45 36.30 23.72Q37.70 27.00 37.70 30.90Q37.70 34.80 36.30 38.10Q34.90 41.40 32.35 43.80Q29.80 46.20 26.38 47.55Q22.95 48.90 18.90 48.90M18.85 43.20Q21.50 43.20 23.75 42.30Q26.00 41.40 27.65 39.72Q29.30 38.05 30.23 35.82Q31.15 33.60 31.15 30.90Q31.15 28.20 30.23 25.97Q29.30 23.75 27.65 22.07Q26.00 20.40 23.75 19.50Q21.50 18.60 18.85 18.60Q16.20 18.60 13.98 19.50Q11.75 20.40 10.07 22.07Q8.40 23.75 7.48 25.97Q6.55 28.20 6.55 30.90Q6.55 33.55 7.48 35.80Q8.40 38.05 10.05 39.72Q11.70 41.40 13.95 42.30Q16.20 43.20 18.85 43.20ZM44.60 48.40L44.60 13.40L59 13.40Q63.65 13.40 66.97 14.90Q70.30 16.40 72.10 19.20Q73.90 22.00 73.90 25.85Q73.90 29.70 72.10 32.50Q70.30 35.30 66.97 36.80Q63.65 38.30 59 38.30L48.20 38.30L51.10 35.25L51.10 48.40L44.60 48.40M51.10 35.95L48.20 32.80L58.70 32.80Q63 32.80 65.17 30.97Q67.35 29.15 67.35 25.85Q67.35 22.50 65.17 20.70Q63 18.90 58.70 18.90L48.20 18.90L51.10 15.70L51.10 35.95ZM80.90 48.40L80.90 13.40L95.30 13.40Q99.95 13.40 103.28 14.90Q106.60 16.40 108.40 19.20Q110.20 22.00 110.20 25.85Q110.20 29.70 108.40 32.47Q106.60 35.25 103.28 36.72Q99.95 38.20 95.30 38.20L84.50 38.20L87.40 35.25L87.40 48.40L80.90 48.40M103.80 48.40L94.95 35.70L101.90 35.70L110.80 48.40L103.80 48.40M87.40 35.95L84.50 32.85L95 32.85Q99.30 32.85 101.48 31.00Q103.65 29.15 103.65 25.85Q103.65 22.50 101.48 20.70Q99.30 18.90 95 18.90L84.50 18.90L87.40 15.70L87.40 35.95ZM112.50 48.40L128.25 13.40L134.65 13.40L150.45 48.40L143.65 48.40L130.10 16.85L132.70 16.85L119.20 48.40L112.50 48.40M119.75 40.30L121.50 35.20L140.40 35.20L142.15 40.30L119.75 40.30ZM154.90 48.40L154.90 13.40L161.40 13.40L161.40 48.40L154.90 48.40ZM170.85 48.40L170.85 13.40L176.20 13.40L198.15 40.35L195.50 40.35L195.50 13.40L201.95 13.40L201.95 48.40L196.60 48.40L174.65 21.45L177.30 21.45L177.30 48.40L170.85 48.40Z"/></g></g></svg>